<svg xmlns="http://www.w3.org/2000/svg" width="256" height="256" viewBox="0 0 256 256">
  <!-- MemoGenerator アプリアイコン（A案「デスクセット」：リング綴じのメモ帳とペン立て） -->
  <!-- この SVG を編集したら tools/make_icon.py を実行して .ico / PNG を作り直す -->
  <!-- 背景は透明。モチーフを少し拡大して 256px の枠いっぱいに置く -->
  <g transform="translate(-31.5 -14.9) scale(1.18)">
    <g transform="rotate(-11 186 134)">
      <rect x="179" y="46" width="15" height="92" rx="4" fill="#C0392B"/>
      <polygon points="179,48 194,48 186.5,28" fill="#EDE6D6"/>
      <polygon points="183,36 190,36 186.5,28" fill="#2B2B2B"/>
    </g>
    <g transform="rotate(12 206 134)">
      <rect x="199" y="66" width="14" height="72" rx="4" fill="#4A6FA5"/>
      <polygon points="199,68 213,68 206,50" fill="#EDE6D6"/>
      <polygon points="202.5,58 209.5,58 206,50" fill="#2B2B2B"/>
    </g>
    <rect x="166" y="132" width="62" height="80" rx="10" fill="#1F3A5F"/>
    <rect x="161" y="126" width="72" height="14" rx="7" fill="#2B4F7E"/>
    <rect x="40" y="58" width="118" height="150" rx="12" fill="#FFFFFF" stroke="#1F3A5F" stroke-width="6"/>
    <rect x="40" y="58" width="118" height="32" rx="12" fill="#1F3A5F"/>
    <rect x="40" y="76" width="118" height="14" fill="#1F3A5F"/>
    <circle cx="64" cy="72" r="5" fill="#F5F3EE"/>
    <circle cx="88" cy="72" r="5" fill="#F5F3EE"/>
    <circle cx="112" cy="72" r="5" fill="#F5F3EE"/>
    <circle cx="136" cy="72" r="5" fill="#F5F3EE"/>
    <path d="M58 114 l8 8 l14 -16" fill="none" stroke="#C0392B" stroke-width="6" stroke-linecap="round" stroke-linejoin="round"/>
    <g stroke="#D9D4C7" stroke-width="6" stroke-linecap="round">
      <line x1="90" y1="116" x2="140" y2="116"/>
      <line x1="58" y1="142" x2="140" y2="142"/>
      <line x1="58" y1="166" x2="126" y2="166"/>
      <line x1="58" y1="190" x2="134" y2="190"/>
    </g>
  </g>
</svg>
